<?xml version="1.0" encoding="UTF-8" standalone="no"?>
<svg
   version="1.0"
   width="496.69376pt"
   height="496.96048pt"
   viewBox="0 0 496.69376 496.96048"
   preserveAspectRatio="xMidYMid meet"
   id="svg8"
   sodipodi:docname="download (8).svg"
   inkscape:version="1.1.2 (b8e25be833, 2022-02-05)"
   xmlns:inkscape="http://www.inkscape.org/namespaces/inkscape"
   xmlns:sodipodi="http://sodipodi.sourceforge.net/DTD/sodipodi-0.dtd"
   xmlns="http://www.w3.org/2000/svg"
   xmlns:svg="http://www.w3.org/2000/svg">
  <defs
     id="defs12" />
  <sodipodi:namedview
     id="namedview10"
     pagecolor="#ffffff"
     bordercolor="#666666"
     borderopacity="1.0"
     inkscape:pageshadow="2"
     inkscape:pageopacity="0.0"
     inkscape:pagecheckerboard="0"
     inkscape:document-units="pt"
     showgrid="false"
     fit-margin-top="0"
     fit-margin-left="0"
     fit-margin-right="0"
     fit-margin-bottom="0"
     inkscape:zoom="0.70710678"
     inkscape:cx="226.98128"
     inkscape:cy="280.01428"
     inkscape:window-width="1920"
     inkscape:window-height="1013"
     inkscape:window-x="-9"
     inkscape:window-y="-9"
     inkscape:window-maximized="1"
     inkscape:current-layer="svg8" />
  <metadata
     id="metadata2">
Created by potrace 1.16, written by Peter Selinger 2001-2019
</metadata>
  <g
     transform="matrix(0.1,0,0,-0.1,-78.309666,508.86049)"
     fill="#000000"
     stroke="none"
     id="g6">
    <path
       d="M 3110,5079 C 2514,5040 1974,4800 1536,4380 1020,3885 738,3152 789,2440 836,1796 1101,1231 1563,794 1899,476 2320,258 2775,166 c 172,-35 296,-47 491,-47 611,0 1176,212 1644,617 348,301 612,718 741,1166 35,124 36,149 7,182 -13,14 -274,158 -581,320 l -558,294 -892,177 c -491,98 -907,178 -925,178 -46,1 -96,-50 -95,-96 1,-45 564,-1244 597,-1274 15,-13 57,-28 106,-39 44,-9 79,-21 78,-25 -7,-20 -203,-209 -212,-205 -12,4 -988,814 -1019,845 -18,18 -4,44 428,797 246,428 448,781 450,783 3,2 587,-299 1299,-668 712,-369 1304,-671 1316,-671 28,0 61,17 82,44 23,27 24,161 3,339 -27,233 -72,412 -157,627 -252,637 -747,1137 -1382,1395 -163,66 -296,104 -486,139 -124,22 -401,49 -465,44 -11,0 -72,-4 -135,-9 z m 280,-207 c 0,-4 -138,-248 -307,-543 -170,-294 -486,-846 -703,-1226 -227,-398 -400,-691 -407,-688 -8,3 -862,704 -907,746 -12,11 37,177 90,304 121,293 276,524 496,744 380,381 870,612 1408,664 73,7 330,7 330,-1 z m 520,-81 c 874,-259 1517,-1017 1620,-1909 7,-57 11,-105 9,-106 -2,-2 -539,275 -1194,615 -655,340 -1194,620 -1200,622 -8,3 431,786 467,833 9,13 169,-17 298,-55 z M 1620,2439 c 322,-267 772,-639 1000,-828 228,-189 417,-345 419,-347 2,-2 -81,-92 -185,-199 C 2750,957 2588,790 2494,693 L 2324,516 2216,573 C 1409,1000 935,1836 991,2734 c 11,169 17,210 33,198 6,-5 274,-227 596,-493 z m 1973,236 c 374,-74 682,-137 685,-140 3,-3 -53,-65 -124,-138 -71,-72 -233,-238 -359,-368 l -230,-235 -113,25 -114,26 -219,464 c -120,256 -221,473 -225,483 -3,10 0,18 6,18 7,0 318,-61 693,-135 z m 1396,-451 c 256,-136 468,-248 470,-251 13,-11 -84,-263 -155,-405 C 5124,1210 4824,880 4488,670 4113,437 3708,320 3270,320 c -255,0 -506,40 -729,116 -10,3 38,58 140,162 85,86 483,495 884,907 401,413 777,798 834,858 58,59 109,107 114,107 5,0 219,-111 476,-246 z"
       id="path4" />
  </g>
</svg>
